<svg width="19" height="19" viewBox="0 0 19 19" fill="none" xmlns="http://www.w3.org/2000/svg">
<path d="M9.49997 7.02665C8.13805 7.02665 7.02663 8.13808 7.02663 9.49999C7.02663 10.8619 8.13805 11.9733 9.49997 11.9733C10.8619 11.9733 11.9733 10.8619 11.9733 9.49999C11.9733 8.13808 10.8619 7.02665 9.49997 7.02665ZM16.9181 9.49999C16.9181 8.47577 16.9274 7.46083 16.8699 6.43847C16.8124 5.25097 16.5415 4.19706 15.6731 3.3287C14.8029 2.45849 13.7508 2.18944 12.5633 2.13192C11.5391 2.0744 10.5242 2.08368 9.50182 2.08368C8.4776 2.08368 7.46266 2.0744 6.4403 2.13192C5.2528 2.18944 4.19889 2.46034 3.33053 3.3287C2.46032 4.19892 2.19127 5.25097 2.13375 6.43847C2.07624 7.46269 2.08551 8.47763 2.08551 9.49999C2.08551 10.5224 2.07624 11.5392 2.13375 12.5615C2.19127 13.749 2.46217 14.8029 3.33053 15.6713C4.20075 16.5415 5.2528 16.8105 6.4403 16.8681C7.46452 16.9256 8.47946 16.9163 9.50182 16.9163C10.526 16.9163 11.541 16.9256 12.5633 16.8681C13.7508 16.8105 14.8048 16.5396 15.6731 15.6713C16.5433 14.8011 16.8124 13.749 16.8699 12.5615C16.9293 11.5392 16.9181 10.5242 16.9181 9.49999ZM9.49997 13.3056C7.39401 13.3056 5.6944 11.6059 5.6944 9.49999C5.6944 7.39403 7.39401 5.69442 9.49997 5.69442C11.6059 5.69442 13.3055 7.39403 13.3055 9.49999C13.3055 11.6059 11.6059 13.3056 9.49997 13.3056ZM13.4614 6.42733C12.9697 6.42733 12.5726 6.03026 12.5726 5.53856C12.5726 5.04687 12.9697 4.6498 13.4614 4.6498C13.9531 4.6498 14.3502 5.04687 14.3502 5.53856C14.3503 5.65532 14.3274 5.77096 14.2828 5.87885C14.2382 5.98675 14.1727 6.08479 14.0902 6.16735C14.0076 6.24991 13.9096 6.31537 13.8017 6.35998C13.6938 6.40459 13.5781 6.42748 13.4614 6.42733Z" fill="white"/>
</svg>
